<svg width="211" height="45" viewBox="0 0 211 45" fill="none" xmlns="http://www.w3.org/2000/svg">
<circle cx="22" cy="22.25" r="20.5" stroke="#F26522" stroke-width="3"/>
<path d="M36.4957 7.75402C38.5071 9.76543 39.131 13.1625 38.0474 17.3766C36.9734 21.5529 34.271 26.2422 30.1318 30.3814C25.9925 34.5207 21.3032 37.223 17.127 38.297C12.9129 39.3807 9.51577 38.7568 7.50436 36.7454C5.49296 34.734 4.86911 31.3369 5.95273 27.1228C7.02673 22.9465 9.72907 18.2572 13.8683 14.118C18.0076 9.97873 22.6969 7.27639 26.8732 6.20239C31.0872 5.11877 34.4843 5.74262 36.4957 7.75402Z" stroke="#F7941D" stroke-width="3"/>
<path d="M7.50402 7.75401C9.51543 5.74261 12.9125 5.11876 17.1266 6.20238C21.3029 7.27638 25.9922 9.97872 30.1314 14.118C34.2707 18.2572 36.973 22.9465 38.047 27.1228C39.1307 31.3369 38.5068 34.734 36.4954 36.7454C34.484 38.7568 31.0869 39.3806 26.8728 38.297C22.6965 37.223 18.0072 34.5207 13.868 30.3814C9.72873 26.2422 7.02639 21.5529 5.95239 17.3766C4.86877 13.1625 5.49262 9.76542 7.50402 7.75401Z" stroke="#F26522" stroke-width="3"/>
<path d="M61.25 26.16V28.5H51.494V15.9H61.016V18.24H54.392V20.976H60.242V23.244H54.392V26.16H61.25ZM63.5702 15.9H69.2942C70.6622 15.9 71.8682 16.164 72.9122 16.692C73.9682 17.208 74.7842 17.94 75.3602 18.888C75.9482 19.836 76.2422 20.94 76.2422 22.2C76.2422 23.46 75.9482 24.564 75.3602 25.512C74.7842 26.46 73.9682 27.198 72.9122 27.726C71.8682 28.242 70.6622 28.5 69.2942 28.5H63.5702V15.9ZM69.1502 26.106C70.4102 26.106 71.4122 25.758 72.1562 25.062C72.9122 24.354 73.2902 23.4 73.2902 22.2C73.2902 21 72.9122 20.052 72.1562 19.356C71.4122 18.648 70.4102 18.294 69.1502 18.294H66.4862V26.106H69.1502ZM84.0393 28.716C82.2393 28.716 80.8353 28.218 79.8273 27.222C78.8313 26.226 78.3333 24.804 78.3333 22.956V15.9H81.2493V22.848C81.2493 25.104 82.1853 26.232 84.0573 26.232C84.9693 26.232 85.6653 25.962 86.1453 25.422C86.6253 24.87 86.8653 24.012 86.8653 22.848V15.9H89.7453V22.956C89.7453 24.804 89.2413 26.226 88.2333 27.222C87.2373 28.218 85.8393 28.716 84.0393 28.716ZM98.6568 28.716C97.3728 28.716 96.2088 28.44 95.1648 27.888C94.1328 27.324 93.3168 26.55 92.7168 25.566C92.1288 24.57 91.8348 23.448 91.8348 22.2C91.8348 20.952 92.1288 19.836 92.7168 18.852C93.3168 17.856 94.1328 17.082 95.1648 16.53C96.2088 15.966 97.3788 15.684 98.6748 15.684C99.7668 15.684 100.751 15.876 101.627 16.26C102.515 16.644 103.259 17.196 103.859 17.916L101.987 19.644C101.135 18.66 100.079 18.168 98.8188 18.168C98.0388 18.168 97.3428 18.342 96.7308 18.69C96.1188 19.026 95.6388 19.5 95.2908 20.112C94.9548 20.724 94.7868 21.42 94.7868 22.2C94.7868 22.98 94.9548 23.676 95.2908 24.288C95.6388 24.9 96.1188 25.38 96.7308 25.728C97.3428 26.064 98.0388 26.232 98.8188 26.232C100.079 26.232 101.135 25.734 101.987 24.738L103.859 26.466C103.259 27.198 102.515 27.756 101.627 28.14C100.739 28.524 99.7488 28.716 98.6568 28.716ZM113.88 25.8H108.03L106.914 28.5H103.926L109.542 15.9H112.422L118.056 28.5H114.996L113.88 25.8ZM112.962 23.586L110.964 18.762L108.966 23.586H112.962ZM121.34 18.276H117.308V15.9H128.288V18.276H124.256V28.5H121.34V18.276ZM129.857 15.9H132.773V28.5H129.857V15.9ZM141.866 28.716C140.558 28.716 139.376 28.434 138.32 27.87C137.276 27.306 136.454 26.532 135.854 25.548C135.266 24.552 134.972 23.436 134.972 22.2C134.972 20.964 135.266 19.854 135.854 18.87C136.454 17.874 137.276 17.094 138.32 16.53C139.376 15.966 140.558 15.684 141.866 15.684C143.174 15.684 144.35 15.966 145.394 16.53C146.438 17.094 147.26 17.874 147.86 18.87C148.46 19.854 148.76 20.964 148.76 22.2C148.76 23.436 148.46 24.552 147.86 25.548C147.26 26.532 146.438 27.306 145.394 27.87C144.35 28.434 143.174 28.716 141.866 28.716ZM141.866 26.232C142.61 26.232 143.282 26.064 143.882 25.728C144.482 25.38 144.95 24.9 145.286 24.288C145.634 23.676 145.808 22.98 145.808 22.2C145.808 21.42 145.634 20.724 145.286 20.112C144.95 19.5 144.482 19.026 143.882 18.69C143.282 18.342 142.61 18.168 141.866 18.168C141.122 18.168 140.45 18.342 139.85 18.69C139.25 19.026 138.776 19.5 138.428 20.112C138.092 20.724 137.924 21.42 137.924 22.2C137.924 22.98 138.092 23.676 138.428 24.288C138.776 24.9 139.25 25.38 139.85 25.728C140.45 26.064 141.122 26.232 141.866 26.232ZM162.507 15.9V28.5H160.113L153.831 20.85V28.5H150.951V15.9H153.363L159.627 23.55V15.9H162.507ZM176.04 15.9C177.156 15.9 178.122 16.086 178.938 16.458C179.766 16.83 180.402 17.358 180.846 18.042C181.29 18.726 181.512 19.536 181.512 20.472C181.512 21.396 181.29 22.206 180.846 22.902C180.402 23.586 179.766 24.114 178.938 24.486C178.122 24.846 177.156 25.026 176.04 25.026H173.502V28.5H170.586V15.9H176.04ZM175.878 22.65C176.754 22.65 177.42 22.464 177.876 22.092C178.332 21.708 178.56 21.168 178.56 20.472C178.56 19.764 178.332 19.224 177.876 18.852C177.42 18.468 176.754 18.276 175.878 18.276H173.502V22.65H175.878ZM191.622 28.5L189.192 24.99H189.048H186.51V28.5H183.594V15.9H189.048C190.164 15.9 191.13 16.086 191.946 16.458C192.774 16.83 193.41 17.358 193.854 18.042C194.298 18.726 194.52 19.536 194.52 20.472C194.52 21.408 194.292 22.218 193.836 22.902C193.392 23.574 192.756 24.09 191.928 24.45L194.754 28.5H191.622ZM191.568 20.472C191.568 19.764 191.34 19.224 190.884 18.852C190.428 18.468 189.762 18.276 188.886 18.276H186.51V22.668H188.886C189.762 22.668 190.428 22.476 190.884 22.092C191.34 21.708 191.568 21.168 191.568 20.472ZM202.932 28.716C201.624 28.716 200.442 28.434 199.386 27.87C198.342 27.306 197.52 26.532 196.92 25.548C196.332 24.552 196.038 23.436 196.038 22.2C196.038 20.964 196.332 19.854 196.92 18.87C197.52 17.874 198.342 17.094 199.386 16.53C200.442 15.966 201.624 15.684 202.932 15.684C204.24 15.684 205.416 15.966 206.46 16.53C207.504 17.094 208.326 17.874 208.926 18.87C209.526 19.854 209.826 20.964 209.826 22.2C209.826 23.436 209.526 24.552 208.926 25.548C208.326 26.532 207.504 27.306 206.46 27.87C205.416 28.434 204.24 28.716 202.932 28.716ZM202.932 26.232C203.676 26.232 204.348 26.064 204.948 25.728C205.548 25.38 206.016 24.9 206.352 24.288C206.7 23.676 206.874 22.98 206.874 22.2C206.874 21.42 206.7 20.724 206.352 20.112C206.016 19.5 205.548 19.026 204.948 18.69C204.348 18.342 203.676 18.168 202.932 18.168C202.188 18.168 201.516 18.342 200.916 18.69C200.316 19.026 199.842 19.5 199.494 20.112C199.158 20.724 198.99 21.42 198.99 22.2C198.99 22.98 199.158 23.676 199.494 24.288C199.842 24.9 200.316 25.38 200.916 25.728C201.516 26.064 202.188 26.232 202.932 26.232Z" fill="black"/>
</svg>
