<?xml version="1.0" encoding="iso-8859-1"?>
<!-- Uploaded to: SVG Repo, www.svgrepo.com, Generator: SVG Repo Mixer Tools -->
<svg version="1.1" id="Layer_1" xmlns="http://www.w3.org/2000/svg" xmlns:xlink="http://www.w3.org/1999/xlink" 
	 viewBox="0 0 512 512" xml:space="preserve">
<path style="fill:#C6C5CA;" d="M214.736,59.999c-20.625-32.563-56.975-54.181-98.373-54.181C52.097,5.818,0,57.915,0,122.181
	c0,56.233,39.887,103.149,92.913,114"/>
<path style="fill:#ACAAB0;" d="M417.821,236.433C471.475,226.077,512,178.861,512,122.181C512,57.915,459.902,5.818,395.636,5.818
	c-41.398,0-77.746,21.618-98.373,54.18"/>
<path style="fill:#D8D8DA;" d="M371.193,102.417c-63.62-63.621-166.767-63.621-230.387,0s-63.621,166.768,0,230.387L256,447.999
	l115.194-115.194C434.815,269.185,434.814,166.038,371.193,102.417z"/>
<path style="fill:#C6C5CA;" d="M371.193,102.417C339.384,70.607,297.692,54.702,256,54.702v393.297l115.194-115.194
	C434.815,269.185,434.814,166.038,371.193,102.417z"/>
<circle style="fill:#EBAFD1;" cx="256" cy="471.273" r="34.909"/>
<path style="fill:#58575D;" d="M215.273,290.908h-0.002c-12.831,0-23.27-10.44-23.27-23.273
	c0.005-12.835,10.445-23.273,23.273-23.273c12.833,0,23.273,10.44,23.273,23.273C238.545,280.468,228.105,290.908,215.273,290.908z"
	/>
<path style="fill:#454449;" d="M296.727,290.908h-0.002c-12.831,0-23.27-10.44-23.27-23.273
	c0.005-12.835,10.445-23.273,23.273-23.273c12.833,0,23.273,10.44,23.273,23.273C320,280.468,309.56,290.908,296.727,290.908z"/>
<rect x="58.182" y="314.182" style="fill:#F8F8F9;" width="162.909" height="34.909"/>
<rect x="290.909" y="314.182" style="fill:#EDEDED;" width="162.909" height="34.909"/>
<rect x="151.274" y="336.193" transform="matrix(0.2169 0.9762 -0.9762 0.2169 512.6827 140.5648)" style="fill:#F8F8F9;" width="34.909" height="107.276"/>
<rect x="289.62" y="372.374" transform="matrix(0.9762 0.2169 -0.2169 0.9762 92.7249 -65.172)" style="fill:#EDEDED;" width="107.276" height="34.909"/>
<path style="fill:#E592BF;" d="M290.909,471.272c-0.001-19.28-15.63-34.909-34.909-34.911v69.82
	C275.279,506.181,290.908,490.55,290.909,471.272z"/>
</svg>