<svg aria-hidden="true" style="position: absolute; width: 0; height: 0; overflow: hidden;" version="1.1" xmlns="http://www.w3.org/2000/svg" xmlns:xlink="http://www.w3.org/1999/xlink">
	<defs>
		<symbol id="icon-arrow" viewBox="0 0 40 32">
			<path d="M24.592 0.908l13.5 13.5c0.21 0.209 0.376 0.457 0.49 0.731s0.172 0.567 0.172 0.863c0 0.296-0.058 0.589-0.172 0.863s-0.28 0.522-0.49 0.731l-13.5 13.5c-0.423 0.423-0.996 0.66-1.594 0.66s-1.171-0.237-1.594-0.66c-0.423-0.423-0.66-0.996-0.66-1.594s0.237-1.171 0.66-1.594l9.658-9.658h-27.562c-0.597 0-1.169-0.237-1.591-0.659s-0.659-0.994-0.659-1.591c0-0.597 0.237-1.169 0.659-1.591s0.994-0.659 1.591-0.659h27.562l-9.66-9.658c-0.423-0.423-0.66-0.996-0.66-1.594s0.237-1.171 0.66-1.594c0.423-0.423 0.996-0.66 1.594-0.66s1.171 0.237 1.594 0.66l0.002 0.004z"></path>
		</symbol>
	</defs>
</svg>
