<svg width="40" height="40" viewBox="0 0 40 40" fill="none" xmlns="http://www.w3.org/2000/svg">
<g clip-path="url(#clip0_42051_11792)">
<path d="M28.9822 16.292C28.9401 15.3356 28.7854 14.6781 28.5639 14.1084C28.3353 13.5036 27.9837 12.9621 27.523 12.512C27.0729 12.0549 26.5278 11.6997 25.9301 11.4747C25.357 11.2531 24.7029 11.0985 23.7465 11.0563C22.783 11.0106 22.4771 11 20.0332 11C17.5894 11 17.2835 11.0106 16.3235 11.0527C15.3671 11.0949 14.7096 11.2497 14.14 11.4711C13.5351 11.6997 12.9936 12.0513 12.5435 12.512C12.0864 12.9621 11.7313 13.5072 11.5062 14.1049C11.2846 14.6781 11.13 15.3321 11.0878 16.2885C11.0421 17.252 11.0315 17.5579 11.0315 20.0018C11.0315 22.4456 11.0421 22.7515 11.0842 23.7115C11.1264 24.6679 11.2812 25.3254 11.5028 25.8952C11.7313 26.4999 12.0864 27.0414 12.5435 27.4915C12.9936 27.9486 13.5386 28.3038 14.1364 28.5288C14.7096 28.7504 15.3636 28.905 16.3201 28.9472C17.2799 28.9895 17.586 28.9999 20.0298 28.9999C22.4736 28.9999 22.7795 28.9895 23.7395 28.9472C24.6959 28.905 25.3534 28.7504 25.9231 28.5288C27.1327 28.0611 28.0892 27.1047 28.5568 25.8952C28.7783 25.322 28.9331 24.6679 28.9752 23.7115C29.0174 22.7515 29.028 22.4456 29.028 20.0018C29.028 17.5579 29.0244 17.252 28.9822 16.292ZM27.3613 23.6411C27.3226 24.5202 27.1749 24.9949 27.0518 25.3114C26.7494 26.0956 26.127 26.7179 25.3429 27.0204C25.0264 27.1434 24.5483 27.2911 23.6726 27.3297C22.7232 27.372 22.4385 27.3824 20.0368 27.3824C17.6351 27.3824 17.3468 27.372 16.4009 27.3297C15.5218 27.2911 15.0471 27.1434 14.7306 27.0204C14.3404 26.8761 13.9852 26.6476 13.6969 26.3487C13.398 26.0568 13.1694 25.7052 13.0252 25.315C12.9021 24.9985 12.7545 24.5202 12.7159 23.6447C12.6736 22.6953 12.6631 22.4104 12.6631 20.0088C12.6631 17.6071 12.6736 17.3188 12.7159 16.373C12.7545 15.4939 12.9021 15.0192 13.0252 14.7027C13.1694 14.3123 13.398 13.9573 13.7005 13.6688C13.9922 13.3699 14.3438 13.1414 14.7342 12.9973C15.0507 12.8742 15.5289 12.7266 16.4044 12.6878C17.3538 12.6457 17.6387 12.6351 20.0402 12.6351C22.4455 12.6351 22.7302 12.6457 23.6762 12.6878C24.5553 12.7266 25.03 12.8742 25.3464 12.9973C25.7367 13.1414 26.0919 13.3699 26.3802 13.6688C26.6791 13.9607 26.9076 14.3123 27.0518 14.7027C27.1749 15.0192 27.3226 15.4973 27.3613 16.373C27.4035 17.3224 27.414 17.6071 27.414 20.0088C27.414 22.4104 27.4035 22.6917 27.3613 23.6411Z" fill="#4D4D4D"/>
<path d="M20.0334 15.3779C17.4806 15.3779 15.4094 17.449 15.4094 20.0019C15.4094 22.5548 17.4806 24.6258 20.0334 24.6258C22.5863 24.6258 24.6573 22.5548 24.6573 20.0019C24.6573 17.449 22.5863 15.3779 20.0334 15.3779ZM20.0334 23.0013C18.3773 23.0013 17.0339 21.6581 17.0339 20.0019C17.0339 18.3456 18.3773 17.0024 20.0334 17.0024C21.6896 17.0024 23.0328 18.3456 23.0328 20.0019C23.0328 21.6581 21.6896 23.0013 20.0334 23.0013Z" fill="#4D4D4D"/>
<path d="M25.9199 15.1947C25.9199 15.7908 25.4365 16.2742 24.8402 16.2742C24.2441 16.2742 23.7607 15.7908 23.7607 15.1947C23.7607 14.5985 24.2441 14.1152 24.8402 14.1152C25.4365 14.1152 25.9199 14.5985 25.9199 15.1947Z" fill="#4D4D4D"/>
</g>
<defs>
<clipPath id="clip0_42051_11792">
<rect width="18" height="18" fill="white" transform="translate(11 11)"/>
</clipPath>
</defs>
</svg>
