<svg width="40" height="40" viewBox="0 0 40 40" fill="none" xmlns="http://www.w3.org/2000/svg">
<path d="M15.8333 17.1667C14.9492 17.1667 14.1014 17.5179 13.4762 18.143C12.8511 18.7681 12.4999 19.6159 12.4999 20.5C12.4999 21.3841 12.8511 22.2319 13.4762 22.857C14.1014 23.4821 14.9492 23.8333 15.8333 23.8333H17.4999C17.7209 23.8333 17.9329 23.9211 18.0892 24.0774C18.2455 24.2337 18.3333 24.4457 18.3333 24.6667C18.3333 24.8877 18.2455 25.0996 18.0892 25.2559C17.9329 25.4122 17.7209 25.5 17.4999 25.5H15.8333C14.5072 25.5 13.2354 24.9732 12.2977 24.0355C11.36 23.0979 10.8333 21.8261 10.8333 20.5C10.8333 19.1739 11.36 17.9021 12.2977 16.9645C13.2354 16.0268 14.5072 15.5 15.8333 15.5H17.4999C17.7209 15.5 17.9329 15.5878 18.0892 15.7441C18.2455 15.9004 18.3333 16.1123 18.3333 16.3333C18.3333 16.5543 18.2455 16.7663 18.0892 16.9226C17.9329 17.0789 17.7209 17.1667 17.4999 17.1667H15.8333ZM21.6666 16.3333C21.6666 16.1123 21.7544 15.9004 21.9107 15.7441C22.0669 15.5878 22.2789 15.5 22.4999 15.5H24.1666C25.4927 15.5 26.7644 16.0268 27.7021 16.9645C28.6398 17.9021 29.1666 19.1739 29.1666 20.5C29.1666 21.8261 28.6398 23.0979 27.7021 24.0355C26.7644 24.9732 25.4927 25.5 24.1666 25.5H22.4999C22.2789 25.5 22.0669 25.4122 21.9107 25.2559C21.7544 25.0996 21.6666 24.8877 21.6666 24.6667C21.6666 24.4457 21.7544 24.2337 21.9107 24.0774C22.0669 23.9211 22.2789 23.8333 22.4999 23.8333H24.1666C25.0506 23.8333 25.8985 23.4821 26.5236 22.857C27.1487 22.2319 27.4999 21.3841 27.4999 20.5C27.4999 19.6159 27.1487 18.7681 26.5236 18.143C25.8985 17.5179 25.0506 17.1667 24.1666 17.1667H22.4999C22.2789 17.1667 22.0669 17.0789 21.9107 16.9226C21.7544 16.7663 21.6666 16.5543 21.6666 16.3333ZM15.8333 20.5C15.8333 20.279 15.921 20.067 16.0773 19.9107C16.2336 19.7545 16.4456 19.6667 16.6666 19.6667H23.3333C23.5543 19.6667 23.7662 19.7545 23.9225 19.9107C24.0788 20.067 24.1666 20.279 24.1666 20.5C24.1666 20.721 24.0788 20.933 23.9225 21.0893C23.7662 21.2455 23.5543 21.3333 23.3333 21.3333H16.6666C16.4456 21.3333 16.2336 21.2455 16.0773 21.0893C15.921 20.933 15.8333 20.721 15.8333 20.5Z" fill="#4D4D4D"/>
</svg>
